<svg width="34" height="27" viewBox="0 0 34 27" fill="none" xmlns="http://www.w3.org/2000/svg">
<path d="M3.33333 26.6667C2.41667 26.6667 1.63222 26.3406 0.98 25.6883C0.327778 25.0361 0.00111111 24.2511 0 23.3333V3.33333C0 2.41667 0.326667 1.63222 0.98 0.98C1.63333 0.327777 2.41778 0.00111111 3.33333 0H30C30.9167 0 31.7017 0.326666 32.355 0.98C33.0083 1.63333 33.3344 2.41778 33.3333 3.33333V23.3333C33.3333 24.25 33.0072 25.035 32.355 25.6883C31.7028 26.3417 30.9178 26.6678 30 26.6667H3.33333ZM16.6667 15L30 6.66667V3.33333L16.6667 11.6667L3.33333 3.33333V6.66667L16.6667 15Z" fill="#C3253A"/>
</svg>
